# xmcd
#
# Track frame offsets: 
#        150
#        12284
#        26594
#        45379
#        68696
#        81750
#        100665
#        115553
#        130241
#        144756
#        157420
#        175231
#
# Disc length: 2626 seconds
#
# Revision: 0
# Processed by: cddbd v1.5.2PL0 Copyright (c) Steve Scherf et al.
# Submitted via: ExactAudioCopy v0.95b4
#
DISCID=8f0a400c
DTITLE=Matt Rae - Twang!
DYEAR=2005
DGENRE=Country
TTITLE0=Road Rage
TTITLE1=Harmambo
TTITLE2=Floatin'
TTITLE3=Surf Wrangler
TTITLE4=Remington Ride
TTITLE5=Almost Home
TTITLE6=Albert
TTITLE7=Sugarfoot Rag
TTITLE8=Tele Savalas
TTITLE9=The Cottage
TTITLE10=Tele-Thrasher
TTITLE11=Sonic Blue
EXTD=
EXTT0=
EXTT1=
EXTT2=
EXTT3=
EXTT4=
EXTT5=
EXTT6=
EXTT7=
EXTT8=
EXTT9=
EXTT10=
EXTT11=
PLAYORDER=
